<?xml version="1.0" encoding="utf-8"?>
<!-- Generator: Adobe Illustrator 27.3.1, SVG Export Plug-In . SVG Version: 6.00 Build 0)  -->
<svg version="1.1" id="Layer_1" xmlns="http://www.w3.org/2000/svg" xmlns:xlink="http://www.w3.org/1999/xlink" x="0px" y="0px"
	 viewBox="0 0 1920 1149" style="enable-background:new 0 0 1920 1149;" xml:space="preserve">
<style type="text/css">
	.st0{fill:none;}
	.st1{fill:none;stroke:#E4E8FF;stroke-width:5;stroke-miterlimit:4;}
	.st2{fill:#E4E8FF;}
	.st3{fill:none;stroke:#E4E8FF;stroke-width:5;}
	.st4{fill:#D8FF56;}
	.st5{fill:#5672FF;}
</style>
<g id="Grupo_2926">
	<g id="Rectángulo_1524" transform="matrix(0.891, 0.454, -0.454, 0.891, 369.751, 418.681)">
		
			<rect x="0" y="0" transform="matrix(2.526241e-06 1 -1 2.526241e-06 261.9997 -3.288091e-04)" class="st0" width="262" height="262"/>
		
			<rect x="2.5" y="2.5" transform="matrix(2.526241e-06 1 -1 2.526241e-06 261.9997 -3.288091e-04)" class="st1" width="257" height="257"/>
	</g>
	
		<rect id="Rectángulo_1525" x="666.4" y="781.5" transform="matrix(0.9135 -0.4068 0.4068 0.9135 -284.2246 375.5026)" class="st2" width="149.4" height="149.4"/>
	<g id="Polígono_1" transform="matrix(0.588, 0.809, -0.809, 0.588, 1079.224, 231.168)">
		<path class="st0" d="M171.1,0l171.1,296.2H0L171.1,0z"/>
		<path class="st2" d="M171.1,10L8.7,291.2h325L171.1,10 M171.1,0l171.1,296.2H0L171.1,0z"/>
	</g>
	<path id="Polígono_2" class="st2" d="M1905,306.2l-262,85.2l57.3-269.6L1905,306.2z"/>
	<g id="Elipse_4" transform="translate(1633 529)">
		<circle class="st0" cx="107" cy="107" r="107"/>
		<circle class="st3" cx="107" cy="107" r="104.5"/>
	</g>
	<circle id="Elipse_5" class="st2" cx="1242" cy="1012" r="107"/>
	<g id="Elipse_3" transform="translate(1589 485)">
		<circle class="st0" cx="151" cy="151" r="151"/>
		<circle class="st3" cx="151" cy="151" r="148.5"/>
	</g>
</g>
</svg>
